<svg xmlns="http://www.w3.org/2000/svg" width="671" height="126" fill="none" viewBox="0 0 671 126"><rect width="126" height="126" fill="#0A0B0D"/><rect width="126" height="126" x="126" fill="#EEF0F3"/><path fill="#0A0B0D" d="M279 78L277 78L277 48L279 48L279 78Z"/><path fill="#0A0B0D" d="M264 64L264 62L292 62L292 64L264 64Z"/><rect width="125.646" height="125.646" x="304" y=".177" fill="#00F"/><path fill="#0A0B0D" d="M456.646 78L454.646 78L454.646 48L456.646 48L456.646 78Z"/><path fill="#0A0B0D" d="M441.646 64L441.646 62L469.646 62L469.646 64L441.646 64Z"/><rect width="189.353" height="18" x="481.646" fill="#3C8AFF"/><rect width="189.353" height="18" fill="#FC401F" transform="matrix(-1 -6.34826e-09 1.20391e-06 -1 671 126)"/><rect width="189.353" height="18" fill="#FEA8CD" transform="matrix(-1 -6.34826e-09 1.20391e-06 -1 671 108)"/><rect width="189.353" height="18" fill="#66C800" transform="matrix(-1 -6.34826e-09 1.20391e-06 -1 671 90)"/><rect width="189.353" height="18" fill="#B6F569" transform="matrix(-1 -6.34826e-09 1.20391e-06 -1 671 72)"/><rect width="189.353" height="18" fill="#B8A581" transform="matrix(-1 -6.34826e-09 1.20391e-06 -1 671 54)"/><rect width="189.353" height="18" fill="#FFD12F" transform="matrix(-1 -6.34826e-09 1.20391e-06 -1 671 36)"/></svg>