<svg xmlns="http://www.w3.org/2000/svg" width="1022" height="750" fill="none" viewBox="0 0 1022 750"><rect width="92.909" height="57.615" fill="#F5F8FF"/><rect width="92.909" height="57.615" y="57.615" fill="#E0E0FF"/><rect width="92.909" height="57.615" y="115.23" fill="#B0CAFF"/><rect width="92.909" height="57.615" y="172.846" fill="#8F8FFF"/><rect width="92.909" height="57.615" y="230.462" fill="#7575FF"/><rect width="92.909" height="57.615" y="288.077" fill="#5C5CFF"/><rect width="92.909" height="57.615" y="345.692" fill="#4747FF"/><rect width="92.909" height="57.615" y="403.308" fill="#2929FF"/><rect width="92.909" height="57.615" y="460.923" fill="#0052FF"/><rect width="92.909" height="57.615" y="518.538" fill="#004BEB"/><rect width="92.909" height="57.615" y="576.154" fill="#003EC1"/><rect width="92.909" height="57.615" y="633.77" fill="#002982"/><rect width="92.909" height="57.615" y="691.385" fill="#00184D"/><rect width="92.909" height="57.615" x="92.908" fill="#F0FEFF"/><rect width="92.909" height="57.615" x="92.908" y="57.615" fill="#BCF6FD"/><rect width="92.909" height="57.615" x="92.908" y="115.23" fill="#88EDFB"/><rect width="92.909" height="57.615" x="92.908" y="172.846" fill="#5DE2F8"/><rect width="92.909" height="57.615" x="92.908" y="230.462" fill="#33D5F4"/><rect width="92.909" height="57.615" x="92.908" y="288.077" fill="#00BCEB"/><rect width="92.909" height="57.615" x="92.908" y="345.692" fill="#00A9DD"/><rect width="92.909" height="57.615" x="92.908" y="403.308" fill="#0093CB"/><rect width="92.909" height="57.615" x="92.908" y="460.923" fill="#007BB3"/><rect width="92.909" height="57.615" x="92.908" y="518.538" fill="#006195"/><rect width="92.909" height="57.615" x="92.908" y="576.154" fill="#004774"/><rect width="92.909" height="57.615" x="92.908" y="633.77" fill="#002F53"/><rect width="92.909" height="57.615" x="92.908" y="691.385" fill="#001B33"/><rect width="92.909" height="57.615" x="185.818" fill="#F5FFFB"/><rect width="92.909" height="57.615" x="185.818" y="57.615" fill="#CBF5E3"/><rect width="92.909" height="57.615" x="185.818" y="115.23" fill="#A3EBCD"/><rect width="92.909" height="57.615" x="185.818" y="172.846" fill="#83E0BA"/><rect width="92.909" height="57.615" x="185.818" y="230.462" fill="#65D6A7"/><rect width="92.909" height="57.615" x="185.818" y="288.077" fill="#3CC28A"/><rect width="92.909" height="57.615" x="185.818" y="345.692" fill="#22AD73"/><rect width="92.909" height="57.615" x="185.818" y="403.308" fill="#129961"/><rect width="92.909" height="57.615" x="185.818" y="460.923" fill="#098551"/><rect width="92.909" height="57.615" x="185.818" y="518.538" fill="#047043"/><rect width="92.909" height="57.615" x="185.818" y="576.154" fill="#025332"/><rect width="92.909" height="57.615" x="185.818" y="633.77" fill="#003923"/><rect width="92.909" height="57.615" x="185.818" y="691.385" fill="#001F12"/><rect width="92.909" height="57.615" x="278.727" fill="#F5FFFA"/><rect width="92.909" height="57.615" x="278.727" y="57.615" fill="#DDFBE8"/><rect width="92.909" height="57.615" x="278.727" y="115.23" fill="#C6F7D1"/><rect width="92.909" height="57.615" x="278.727" y="172.846" fill="#B0F2B6"/><rect width="92.909" height="57.615" x="278.727" y="230.462" fill="#9FEE9B"/><rect width="92.909" height="57.615" x="278.727" y="288.077" fill="#89DF75"/><rect width="92.909" height="57.615" x="278.727" y="345.692" fill="#7FD057"/><rect width="92.909" height="57.615" x="278.727" y="403.308" fill="#56B340"/><rect width="92.909" height="57.615" x="278.727" y="460.923" fill="#359730"/><rect width="92.909" height="57.615" x="278.727" y="518.538" fill="#237A2B"/><rect width="92.909" height="57.615" x="278.727" y="576.154" fill="#195D29"/><rect width="92.909" height="57.615" x="278.727" y="633.77" fill="#114023"/><rect width="92.909" height="57.615" x="278.727" y="691.385" fill="#071A11"/><rect width="92.909" height="57.615" x="371.637" fill="#FFFCF1"/><rect width="92.909" height="57.615" x="371.637" y="57.615" fill="#FFF4C0"/><rect width="92.909" height="57.615" x="371.637" y="115.23" fill="#FFF091"/><rect width="92.909" height="57.615" x="371.637" y="172.846" fill="#FFEA64"/><rect width="92.909" height="57.615" x="371.637" y="230.462" fill="#FFE436"/><rect width="92.909" height="57.615" x="371.637" y="288.077" fill="#F7D21A"/><rect width="92.909" height="57.615" x="371.637" y="345.692" fill="#EBBA00"/><rect width="92.909" height="57.615" x="371.637" y="403.308" fill="#CF9700"/><rect width="92.909" height="57.615" x="371.637" y="460.923" fill="#AE7100"/><rect width="92.909" height="57.615" x="371.637" y="518.538" fill="#884C00"/><rect width="92.909" height="57.615" x="371.637" y="576.154" fill="#603000"/><rect width="92.909" height="57.615" x="371.637" y="633.77" fill="#3A1400"/><rect width="92.909" height="57.615" x="371.637" y="691.385" fill="#1B0600"/><rect width="92.909" height="57.615" x="464.545" fill="#FFFAF5"/><rect width="92.909" height="57.615" x="464.545" y="57.615" fill="#FEE8D2"/><rect width="92.909" height="57.615" x="464.545" y="115.23" fill="#FDD5B0"/><rect width="92.909" height="57.615" x="464.545" y="172.846" fill="#FBC293"/><rect width="92.909" height="57.615" x="464.545" y="230.462" fill="#F9AE76"/><rect width="92.909" height="57.615" x="464.545" y="288.077" fill="#F48C4C"/><rect width="92.909" height="57.615" x="464.545" y="345.692" fill="#ED702F"/><rect width="92.909" height="57.615" x="464.545" y="403.308" fill="#E1591B"/><rect width="92.909" height="57.615" x="464.545" y="460.923" fill="#CF470E"/><rect width="92.909" height="57.615" x="464.545" y="518.538" fill="#B53606"/><rect width="92.909" height="57.615" x="464.545" y="576.154" fill="#912702"/><rect width="92.909" height="57.615" x="464.545" y="633.77" fill="#641A00"/><rect width="92.909" height="57.615" x="464.545" y="691.385" fill="#330D00"/><rect width="92.909" height="57.615" x="557.455" fill="#FFF5F6"/><rect width="92.909" height="57.615" x="557.455" y="57.615" fill="#FEE1E4"/><rect width="92.909" height="57.615" x="557.455" y="115.23" fill="#FDCED2"/><rect width="92.909" height="57.615" x="557.455" y="172.846" fill="#FBBABF"/><rect width="92.909" height="57.615" x="557.455" y="230.462" fill="#F9A6AD"/><rect width="92.909" height="57.615" x="557.455" y="288.077" fill="#F47F88"/><rect width="92.909" height="57.615" x="557.455" y="345.692" fill="#ED5966"/><rect width="92.909" height="57.615" x="557.455" y="403.308" fill="#E13947"/><rect width="92.909" height="57.615" x="557.455" y="460.923" fill="#CF202F"/><rect width="92.909" height="57.615" x="557.455" y="518.538" fill="#B50F1D"/><rect width="92.909" height="57.615" x="557.455" y="576.154" fill="#910510"/><rect width="92.909" height="57.615" x="557.455" y="633.77" fill="#640109"/><rect width="92.909" height="57.615" x="557.455" y="691.385" fill="#330004"/><rect width="92.909" height="57.615" x="650.363" fill="#FFF2FF"/><rect width="92.909" height="57.615" x="650.363" y="57.615" fill="#FDE4FD"/><rect width="92.909" height="57.615" x="650.363" y="115.23" fill="#FBD4FA"/><rect width="92.909" height="57.615" x="650.363" y="172.846" fill="#F8C3F5"/><rect width="92.909" height="57.615" x="650.363" y="230.462" fill="#F4B2F0"/><rect width="92.909" height="57.615" x="650.363" y="288.077" fill="#EB8FE3"/><rect width="92.909" height="57.615" x="650.363" y="345.692" fill="#DD6ED1"/><rect width="92.909" height="57.615" x="650.363" y="403.308" fill="#CB51BB"/><rect width="92.909" height="57.615" x="650.363" y="460.923" fill="#B33AA2"/><rect width="92.909" height="57.615" x="650.363" y="518.538" fill="#952785"/><rect width="92.909" height="57.615" x="650.363" y="576.154" fill="#741A66"/><rect width="92.909" height="57.615" x="650.363" y="633.77" fill="#531148"/><rect width="92.909" height="57.615" x="650.363" y="691.385" fill="#330A2C"/><rect width="92.909" height="57.615" x="743.273" fill="#FBF7FF"/><rect width="92.909" height="57.615" x="743.273" y="57.615" fill="#F4E8FF"/><rect width="92.909" height="57.615" x="743.273" y="115.23" fill="#EDD9FF"/><rect width="92.909" height="57.615" x="743.273" y="172.846" fill="#E6C9FF"/><rect width="92.909" height="57.615" x="743.273" y="230.462" fill="#DEB8FF"/><rect width="92.909" height="57.615" x="743.273" y="288.077" fill="#CD99FD"/><rect width="92.909" height="57.615" x="743.273" y="345.692" fill="#BC7BFB"/><rect width="92.909" height="57.615" x="743.273" y="403.308" fill="#9D6BF2"/><rect width="92.909" height="57.615" x="743.273" y="460.923" fill="#8A55E9"/><rect width="92.909" height="57.615" x="743.273" y="518.538" fill="#7743D7"/><rect width="92.909" height="57.615" x="743.273" y="576.154" fill="#5A30AD"/><rect width="92.909" height="57.615" x="743.273" y="633.77" fill="#361B6B"/><rect width="92.909" height="57.615" x="743.273" y="691.385" fill="#190D33"/><rect width="92.909" height="57.615" x="836.182" fill="#F6F7FF"/><rect width="92.909" height="57.615" x="836.182" y="57.615" fill="#E6E8FF"/><rect width="92.909" height="57.615" x="836.182" y="115.23" fill="#D6DAFE"/><rect width="92.909" height="57.615" x="836.182" y="172.846" fill="#C6CCFD"/><rect width="92.909" height="57.615" x="836.182" y="230.462" fill="#B5BDFD"/><rect width="92.909" height="57.615" x="836.182" y="288.077" fill="#94A1FB"/><rect width="92.909" height="57.615" x="836.182" y="345.692" fill="#7487F7"/><rect width="92.909" height="57.615" x="836.182" y="403.308" fill="#596FF2"/><rect width="92.909" height="57.615" x="836.182" y="460.923" fill="#425BE9"/><rect width="92.909" height="57.615" x="836.182" y="518.538" fill="#2F4AD7"/><rect width="92.909" height="57.615" x="836.182" y="576.154" fill="#1F36AD"/><rect width="92.909" height="57.615" x="836.182" y="633.77" fill="#11206B"/><rect width="92.909" height="57.615" x="836.182" y="691.385" fill="#080F33"/><rect width="92.909" height="57.615" x="929.09" fill="#fff"/><rect width="92.909" height="57.615" x="929.09" y="57.615" fill="#F7F8F9"/><rect width="92.909" height="57.615" x="929.09" y="115.23" fill="#EEF0F3"/><rect width="92.909" height="57.615" x="929.09" y="172.846" fill="#DEE1E7"/><rect width="92.909" height="57.615" x="929.09" y="230.462" fill="#CED2DB"/><rect width="92.909" height="57.615" x="929.09" y="288.077" fill="#B1B7C3"/><rect width="92.909" height="57.615" x="929.09" y="345.692" fill="#89909E"/><rect width="92.909" height="57.615" x="929.09" y="403.308" fill="#717886"/><rect width="92.909" height="57.615" x="929.09" y="460.923" fill="#5B616E"/><rect width="92.909" height="57.615" x="929.09" y="518.538" fill="#464B55"/><rect width="92.909" height="57.615" x="929.09" y="576.154" fill="#32353D"/><rect width="92.909" height="57.615" x="929.09" y="633.77" fill="#1E2025"/><rect width="92.909" height="57.615" x="929.09" y="691.385" fill="#0A0B0D"/></svg>