<svg xmlns="http://www.w3.org/2000/svg" width="32" height="32" fill="none" viewBox="0 0 32 32"><g clip-path="url(#clip0_4283_55832)"><rect width="32" height="32" fill="#73A2FF" rx="8"/><path fill="#0052FF" d="M16.0456 10.7359C17.4856 10.7359 18.6741 9.56853 18.6741 8.10358C18.6741 6.63863 17.4856 5.49414 16.0456 5.49414C14.6056 5.49414 13.417 6.66152 13.417 8.12647C13.417 9.59142 14.5827 10.7359 16.0456 10.7359Z"/><path fill="#FFD200" d="M8.38867 19.5704C8.38867 15.3358 11.8172 11.9023 16.0458 11.9023C20.2744 11.9023 23.703 15.3358 23.703 19.5704H8.38867Z"/><path fill="#0052FF" d="M19.6801 26.5075H12.3887V18.5418C12.3887 16.5275 14.0115 14.9023 16.023 14.9023C18.0344 14.9023 19.6572 16.5275 19.6572 18.5418L19.6801 26.5075Z"/><path fill="#0A0B0D" d="M12.3887 19.5719V18.5418C12.3887 16.5275 14.0115 14.9023 16.023 14.9023C18.0344 14.9023 19.6572 16.5275 19.6572 18.5418V19.5719H12.3887Z"/></g><defs><clipPath id="clip0_4283_55832"><rect width="32" height="32" fill="#fff" rx="8"/></clipPath></defs></svg>